<?xml version="1.0" encoding="UTF-8" standalone="no"?>
<!-- Created with Inkscape (http://www.inkscape.org/) -->

<svg
   width="251.35417mm"
   height="67.045586mm"
   viewBox="0 0 251.35417 67.045586"
   version="1.1"
   id="svg1"
   xml:space="preserve"
   sodipodi:docname="Bentley - 2025sy.svg"
   inkscape:version="1.3 (0e150ed6c4, 2023-07-21)"
   xmlns:inkscape="http://www.inkscape.org/namespaces/inkscape"
   xmlns:sodipodi="http://sodipodi.sourceforge.net/DTD/sodipodi-0.dtd"
   xmlns="http://www.w3.org/2000/svg"
   xmlns:svg="http://www.w3.org/2000/svg"><sodipodi:namedview
     id="namedview1"
     pagecolor="#ffffff"
     bordercolor="#000000"
     borderopacity="0.25"
     inkscape:showpageshadow="2"
     inkscape:pageopacity="0.0"
     inkscape:pagecheckerboard="0"
     inkscape:deskcolor="#d1d1d1"
     inkscape:document-units="mm"
     inkscape:zoom="0.82383357"
     inkscape:cx="472.78967"
     inkscape:cy="143.23281"
     inkscape:window-width="1760"
     inkscape:window-height="798"
     inkscape:window-x="132"
     inkscape:window-y="113"
     inkscape:window-maximized="0"
     inkscape:current-layer="layer1" /><defs
     id="defs1" /><g
     inkscape:label="Layer 1"
     inkscape:groupmode="layer"
     id="layer1"
     transform="translate(-25.179782,-213.7695)"><path
       id="path1"
       style="opacity:1;fill:#000000;fill-opacity:1;stroke-width:6.98063;stroke-linecap:round;paint-order:stroke fill markers"
       d="m 111.35544,213.7702 -21.967733,0.0472 c -38.635718,0.0829 -51.899109,0.39684 -57.305891,0.87494 -0.702387,0.0622 -2.958795,0.22174 -4.730836,1.34412 -0.843425,0.53421 -3.243752,2.43217 -1.620583,5.9359 0.959422,2.07113 2.989908,3.86856 4.76824,5.25044 10.910849,8.47846 34.678686,21.65344 49.733136,28.36061 15.054432,6.70717 22.199407,9.2283 26.827047,9.2283 2.04581,0 3.73452,-0.56105 5.49031,-1.32298 2.06016,2.79038 4.64844,5.3688 7.73944,7.69148 8.22308,6.1791 18.73159,9.63519 30.53089,9.63487 11.79925,-3.1e-4 22.30868,-3.45577 30.53169,-9.63487 3.09102,-2.32268 5.67928,-4.9011 7.73946,-7.69148 1.75579,0.76193 3.44448,1.32298 5.4903,1.32298 4.62767,0 11.7726,-2.52113 26.82705,-9.2283 15.05444,-6.70717 38.82219,-19.88217 49.73314,-28.36061 1.77834,-1.3819 3.88279,-3.17931 4.84223,-5.25044 1.62318,-3.50373 -0.77715,-5.40169 -1.62058,-5.9359 -1.77205,-1.12238 -4.10245,-1.28201 -4.80483,-1.34412 -5.40682,-0.47814 -18.67014,-0.79201 -57.3059,-0.87494 l -21.96773,-0.0472 c -8.51738,-0.0183 -17.74973,0.31777 -20.11541,1.25791 -2.7742,1.10247 -2.00419,3.2727 -1.30753,4.33566 -5.28676,-2.42545 -11.45278,-3.81443 -18.04189,-3.81443 -6.58921,0 -12.75506,1.38898 -18.0419,3.81443 0.69664,-1.06296 1.46664,-3.23317 -1.30753,-4.33566 -2.36559,-0.94009 -11.59749,-1.27621 -20.11459,-1.25791 z m -52.205077,4.96339 c 3.28095,-0.0173 3.867703,-0.003 9.84222,0.12934 l 22.409266,5.33256 -58.195463,-1.66856 c -0.752387,-1.60629 0.379888,-2.42109 0.74402,-2.63131 1.069067,-0.6172 2.446218,-0.72366 4.213681,-0.76597 1.427162,-0.0342 10.189977,-0.33896 15.286991,-0.36591 z m 183.339817,0 c 1.89978,-0.008 3.7997,0.002 5.69929,0.0301 5.09657,0.0744 15.28699,0.3659 15.28699,0.3659 1.76748,0.0423 3.1446,0.14886 4.21367,0.76597 0.36415,0.21021 1.49644,1.02502 0.74403,2.63132 l -58.19547,1.66856 22.40927,-5.33256 c 0,0 6.56122,-0.11628 9.84222,-0.12919 z m -168.929389,0.2537 c 8.09635,0.2232 16.160664,0.52847 24.372995,0.6684 l 20.996034,5.32848 -22.588159,-0.64725 z m 154.518959,0 -22.78087,5.34963 -22.58816,0.64725 20.99604,-5.32848 c 8.21227,-0.13989 16.27658,-0.4452 24.37299,-0.6684 z m -127.64557,0.28134 c 5.21084,0.0949 10.38742,0.30335 15.33695,0.38706 7.17552,0.12132 8.20365,2.04958 6.81699,5.2366 z m 100.77218,0 -22.15395,5.62366 c -0.99866,-2.77063 -1.04382,-5.09505 6.77995,-5.29433 4.94868,-0.12604 10.16313,-0.23444 15.374,-0.32933 z m -50.39272,-0.0658 c 17.63635,0 31.9343,10.76403 31.93461,24.04194 3e-4,13.27842 -14.29784,24.04277 -31.93461,24.04277 -17.63669,0 -31.93488,-10.76435 -31.93458,-24.04277 3e-4,-13.27791 14.29832,-24.04194 31.93458,-24.04194 z m 0.007,0.7431 c -17.09099,0 -30.9469,10.43147 -30.9472,23.29884 -3.1e-4,12.8679 13.85578,23.29965 30.9472,23.29965 17.09151,0 30.94754,-10.43175 30.94723,-23.29965 -3e-4,-12.86737 -13.85615,-23.29884 -30.94723,-23.29884 z m -116.869854,3.74938 55.172217,7.74921 -41.579803,1.98079 c -6.356443,-3.8312 -11.494795,-7.16007 -13.592414,-9.73 z m 233.739724,0 c -2.09764,2.56993 -7.23604,5.8988 -13.5924,9.73 l -41.57982,-1.98079 z m -226.18242,0.0626 54.703849,1.56692 20.471561,4.80645 -22.239323,1.05953 z m 218.62512,0 -52.93608,7.4329 -22.23933,-1.05953 20.47156,-4.80645 z m -158.98146,1.7084 20.85536,0.59685 c -0.65823,1.20854 -1.49575,2.48697 -2.3085,3.75751 z m 99.3378,0 -18.54686,4.35436 c -0.81277,-1.27054 -1.65025,-2.54897 -2.3085,-3.75751 z m -81.55041,5.55211 c -0.017,0.0279 -0.0367,0.0566 -0.0537,0.0845 -0.64634,1.06252 -1.2032,2.15917 -1.6832,3.28265 l -17.468636,-2.45243 z m 63.76302,0 19.20551,0.91478 -17.46865,2.45324 c -0.48,-1.12348 -1.03683,-2.22094 -1.68319,-3.28346 -0.017,-0.0279 -0.0367,-0.0566 -0.0537,-0.0845 z m -88.291321,1.16847 19.590121,2.75166 -17.757308,2.60693 -41.772518,-3.45584 z m 112.819631,0 39.9397,1.90275 -41.77252,3.45584 -17.7573,-2.60693 z m -157.589375,2.49634 42.280728,3.49649 -28.910302,4.24377 c -2.76775,-1.5124 -5.520111,-3.07408 -8.202935,-4.66659 -1.792753,-1.06416 -3.483389,-2.06913 -5.167491,-3.07367 z m 202.359115,0 c -1.68412,1.00454 -3.37472,2.00951 -5.16749,3.07367 -2.68285,1.59251 -5.43517,3.15419 -8.20294,4.66659 l -28.9103,-4.24377 z m -135.26386,0.85949 c -0.43121,1.17476 -0.76288,2.38166 -0.99691,3.6152 l -15.11785,-1.2506 z m 68.16859,0 16.11478,2.3646 -15.11786,1.2506 c -0.23403,-1.23354 -0.56571,-2.44044 -0.99692,-3.6152 z m -88.605995,2.99886 17.391395,1.43843 -14.233168,3.7014 -31.380617,-0.99852 z m 109.043415,0 28.22238,4.14131 -31.3806,0.99852 -14.23318,-3.7014 z m -89.80295,1.98649 c -0.11189,0.89347 -0.19027,1.79551 -0.19027,2.71669 0,0.31721 0.0257,0.62945 0.039,0.94405 l -12.44752,-0.39599 z m 70.56248,0 12.59876,3.26475 -12.32439,0.39945 c -0.31584,0.0102 -0.0841,-0.6303 -0.0841,-0.94751 0,-0.92118 -0.0784,-1.82322 -0.19027,-2.71669 z m -120.93962,3.05171 30.895985,0.98552 -19.094101,4.96664 c -3.838904,-1.82239 -7.813556,-3.81767 -11.801884,-5.95216 z m 171.31676,0 c -3.98834,2.13449 -7.96296,4.12977 -11.80188,5.95216 l -19.09411,-4.96664 z m -136.948675,1.09691 14.666565,0.46756 -9.56982,3.92177 -23.390721,0.35045 z m 102.580595,0 18.29397,4.73978 -23.39072,-0.35045 -9.56982,-3.92177 z m -86.61219,1.00504 c 0.12013,1.09213 0.339,2.16023 0.61392,3.2119 l -8.77458,0.1317 z m 70.64379,0 8.16065,3.34363 -8.77458,-0.1317 c 0.27491,-1.05166 0.49387,-2.11977 0.61393,-3.2119 z m -70.53402,4.21124 -6.43517,3.92259 -16.261135,1.1205 11.914095,-4.88127 z m 70.42425,0 10.7822,0.16182 11.91409,4.88127 -15.77975,-0.84891 z m -83.91746,0.20248 -12.322292,5.04959 c -1.341508,-0.55358 -2.868538,-1.16617 -4.02747,-1.65231 -2.178625,-0.91388 -4.490908,-1.9561 -6.848249,-3.04927 z m 97.41066,0 23.19801,0.34801 c -2.35735,1.09317 -4.66961,2.13539 -6.84825,3.04927 -1.15894,0.48614 -2.68595,1.09873 -4.02747,1.65231 z m -82.94982,0.3407 c 0.32137,0.94925 0.68499,1.88518 1.12783,2.79151 l -6.41729,0.44235 z m 68.48898,0 5.8367,3.61522 -7.21172,-0.3708 c 0.50323,-0.90633 1.00422,-2.08111 1.37502,-3.24442 z m -68.38652,3.85834 -5.78466,3.72417 -8.03869,0.80581 6.59537,-4.03234 z m 1.63847,0.10244 c 0.44169,0.79308 0.92365,1.56878 1.45308,2.3215 -1.7163,0.81131 -4.07711,2.0341 -6.32052,2.83949 -2.26576,0.8134 -4.45017,1.30265 -6.15545,1.34656 -1.31404,0.0338 -3.13993,-0.36393 -5.23173,-1.00424 l 9.17219,-0.91966 z m 65.68203,0.22687 8.67293,0.4399 6.11398,3.76076 -8.49973,-0.50576 z m -76.66752,0.31468 -7.1239,4.34216 c -1.069571,-0.36704 -2.16967,-0.76379 -3.345251,-1.23597 -1.70214,-0.68368 -3.260755,-1.33902 -4.978843,-2.0426 z m 75.64703,0.0585 6.96697,4.2828 9.63323,0.61962 c -2.09182,0.64031 -3.91768,1.03805 -5.23173,1.00422 -1.7053,-0.0439 -3.88981,-0.53317 -6.15544,-1.34656 -2.24864,-0.80727 -4.57987,-2.04118 -6.29695,-2.85248 0.40236,-0.54572 0.72036,-1.09256 1.08392,-1.7076 z m 11.81244,0.21223 14.96663,0.792 c -1.71811,0.70363 -3.2767,1.35892 -4.97885,2.0426 -1.17557,0.47218 -3.34525,1.23597 -3.34525,1.23597 z m -73.22061,3.81525 c 6.32646,7.2458 16.90908,11.91571 29.25018,11.91571 12.28954,0 22.9037,-4.70813 29.23963,-11.9027 0.0142,0.008 2.21696,1.17469 4.71606,2.41369 -6.78537,8.68935 -19.46382,14.7268 -33.95569,14.72644 -14.49168,-3.5e-4 -27.17178,-6.03709 -33.95723,-14.72644 2.5078,-1.24331 4.70705,-2.4267 4.70705,-2.4267 z"
       sodipodi:nodetypes="sssssssscssscssssssssscscssscccsssscssscccsccccccccccccsccscssssssssssssccccccccccccccccccccccccccccccccccsccccccccccccccsccccccccccccccccccccccccccccccccscccccccccccccccccccccccccccccccccccccccccsccccscccccccccccccccccssccccccccccscccssssccscscscsscssc" /><path
       id="path7"
       style="opacity:1;fill:#ffffff;fill-opacity:1;stroke:none;stroke-width:0.991315;stroke-linecap:butt;stroke-dasharray:none;stroke-opacity:1;paint-order:stroke fill markers"
       d="m 150.82026,224.13255 c -7.23841,0 -15.87108,2.16271 -19.91048,7.28164 -0.37761,0.47853 -0.43533,0.71388 0,1.14897 l 1.56366,1.56285 c 0.61665,0.6163 0.58221,0.59927 0.58221,1.09042 v 16.82869 c 0,0.49114 0.0344,0.47412 -0.58221,1.09043 l -1.56366,1.56285 c -0.34212,0.34194 -0.35093,0.62006 0,0.99284 4.03939,4.29099 12.67207,6.76124 19.91048,6.76124 7.85612,0 12.54867,-1.79643 15.47159,-4.16652 3.14423,-2.54956 3.56069,-5.27398 3.56069,-7.08406 0,-2.66461 -1.05293,-4.61731 -3.307,-6.7832 -1.01065,-0.97111 -2.03425,-1.65789 -2.41377,-1.8829 -0.48405,-0.28699 -0.57254,-0.61889 -0.0563,-0.88265 0.38796,-0.19823 1.36128,-0.69486 2.32377,-1.6197 1.74014,-1.6721 2.43074,-2.99645 2.43074,-5.66106 0,-1.47361 -0.43153,-3.83106 -3.19672,-6.20506 -2.56384,-2.20113 -7.06654,-4.03478 -14.81293,-4.03478 z m 0,2.61099 c 3.1534,0 7.71018,1.04757 7.71018,7.10275 0,2.57197 -0.73359,4.43873 -1.71654,5.55698 -1.26138,1.435 -2.9818,2.11813 -5.99364,2.11813 -2.91961,0 -4.96701,-0.46296 -6.50509,-2.00104 -1.20398,-1.20399 -1.86371,-3.1021 -1.86371,-5.67407 0,-7.08231 6.31887,-7.10275 8.3688,-7.10275 z m 0.24385,16.96412 c 3.39702,0 8.47864,0.71104 8.47864,8.14806 0,2.37255 -1.00278,4.85236 -2.11483,5.96441 -1.61193,1.61193 -3.71289,2.00103 -6.60766,2.00103 -3.14185,0 -5.2974,-0.94142 -6.51892,-2.16294 -1.35711,-1.35713 -2.09901,-4.1116 -2.09901,-5.8025 0,-6.9947 4.97477,-8.14806 8.86178,-8.14806 z"
       sodipodi:nodetypes="ssssssssssssssssssssssssssssssssss" /></g></svg>
